<svg width="14" height="23" viewBox="0 0 14 23" fill="none" xmlns="http://www.w3.org/2000/svg">
<rect width="14" height="23" fill="#8E8E8E"/>
<g id="Tablet - 768" clip-path="url(#clip0_0_1)">
<rect width="768" height="7824" transform="translate(-98 -1200)" fill="white"/>
<g id="About">
<rect width="768" height="862" transform="translate(-98 -510)" fill="white"/>
<g id="Frame 3">
<path id="Arrow 2" d="M0.93934 10.4393C0.353553 11.0251 0.353553 11.9749 0.93934 12.5607L10.4853 22.1066C11.0711 22.6924 12.0208 22.6924 12.6066 22.1066C13.1924 21.5208 13.1924 20.5711 12.6066 19.9853L4.12132 11.5L12.6066 3.01472C13.1924 2.42893 13.1924 1.47919 12.6066 0.893398C12.0208 0.307611 11.0711 0.307611 10.4853 0.893398L0.93934 10.4393ZM3 10H2L2 13H3V10Z" fill="black"/>
</g>
</g>
</g>
<defs>
<clipPath id="clip0_0_1">
<rect width="768" height="7824" fill="white" transform="translate(-98 -1200)"/>
</clipPath>
</defs>
</svg>
